<?xml version="1.0" standalone="no"?>
<!DOCTYPE svg PUBLIC "-//W3C//DTD SVG 20010904//EN"
 "http://www.w3.org/TR/2001/REC-SVG-20010904/DTD/svg10.dtd">
<svg version="1.0" xmlns="http://www.w3.org/2000/svg"
 width="270.000000pt" height="270.000000pt" viewBox="0 0 270.000000 270.000000"
 preserveAspectRatio="xMidYMid meet">
<metadata>
Created by potrace 1.14, written by Peter Selinger 2001-2017
</metadata>
<g transform="translate(0.000000,270.000000) scale(0.100000,-0.100000)"
fill="#000000" stroke="none">
<path d="M90 1760 l0 -870 1265 0 1265 0 0 870 0 870 -1265 0 -1265 0 0 -870z
m398 153 c3 -22 0 -23 -57 -23 l-60 0 -3 -152 c-3 -140 -5 -153 -22 -156 -10
-2 -22 2 -27 10 -5 7 -9 77 -9 156 l0 142 -54 0 c-56 0 -72 9 -62 36 5 12 30
14 148 12 140 -3 143 -4 146 -25z m310 0 c3 -22 0 -22 -100 -25 l-103 -3 0
-50 0 -50 90 -3 c95 -3 116 -11 95 -37 -9 -11 -33 -15 -101 -15 l-89 0 0 -50
0 -50 111 0 c109 0 110 0 107 -22 -3 -23 -6 -23 -133 -23 l-130 0 -3 165 c-1
90 0 170 3 177 3 11 33 13 127 11 118 -3 123 -4 126 -25z m123 10 c8 -9 13
-18 12 -20 -2 -1 -3 -64 -3 -138 l0 -135 94 0 c96 0 111 -5 100 -34 -5 -13
-26 -16 -130 -16 l-124 0 0 173 c0 96 3 177 7 180 11 12 30 8 44 -10z m504 -8
c0 -19 -8 -20 -102 -23 l-103 -3 0 -54 0 -55 96 0 c93 0 95 -1 92 -22 -3 -22
-8 -23 -95 -26 l-93 -3 0 -49 0 -49 108 -3 c99 -3 107 -4 107 -23 0 -19 -7
-20 -135 -20 l-135 0 -3 165 c-1 90 0 170 3 177 3 11 34 13 132 11 120 -3 128
-4 128 -23z m310 0 c0 -18 -8 -21 -83 -25 -59 -4 -86 -9 -92 -20 -13 -20 -13
-200 0 -220 7 -11 34 -16 97 -20 80 -5 88 -7 88 -25 0 -18 -8 -20 -97 -23 -90
-3 -98 -1 -125 22 -27 24 -28 27 -31 136 -6 177 14 201 158 197 78 -2 85 -4
85 -22z m331 -8 c22 -26 24 -36 24 -142 0 -63 -5 -125 -11 -138 -16 -36 -50
-47 -140 -47 -76 0 -82 2 -110 29 -29 29 -29 30 -29 148 0 168 14 184 158 180
78 -2 85 -4 108 -30z m209 -47 l57 -81 59 81 c89 121 93 116 97 -98 2 -150 0
-173 -13 -179 -31 -11 -37 13 -36 131 0 64 -3 116 -7 116 -4 -1 -24 -25 -45
-55 -22 -33 -45 -55 -56 -55 -11 0 -34 23 -57 58 l-39 57 -5 -125 c-4 -112 -7
-125 -24 -128 -10 -2 -22 2 -27 10 -10 15 -12 308 -3 332 13 35 43 15 99 -64z
m-586 -360 c41 -12 51 -24 51 -67 0 -56 -60 -93 -152 -93 l-38 0 0 -70 c0 -63
-2 -70 -20 -70 -19 0 -20 7 -20 155 l0 155 73 0 c39 0 88 -4 106 -10z m571
-36 c0 -21 -28 -28 -46 -13 -14 12 -14 14 1 25 20 15 45 8 45 -12z m-340 -69
c17 -15 20 -31 20 -101 0 -56 4 -84 13 -87 6 -3 -5 -6 -25 -6 -30 -1 -38 3
-38 17 0 11 -3 13 -8 5 -21 -33 -89 -36 -124 -5 -41 35 -17 67 76 97 66 22 83
47 51 79 -28 28 -63 20 -86 -19 -12 -19 -23 -35 -25 -35 -2 0 -4 14 -4 30 0
22 6 33 23 40 32 14 105 5 127 -15z m552 7 c5 -5 8 -22 6 -38 -4 -26 -5 -27
-13 -9 -23 56 -64 70 -106 36 -21 -17 -22 -21 -9 -34 8 -8 38 -22 66 -31 29
-9 60 -26 70 -37 17 -18 17 -23 3 -47 -21 -38 -75 -56 -128 -42 -38 10 -41 13
-41 45 0 44 6 44 24 1 16 -38 50 -52 91 -36 55 21 40 63 -29 81 -58 15 -86 36
-86 63 0 23 21 48 50 59 20 9 90 1 102 -11z m-412 -9 c0 -15 1 -15 18 0 10 10
33 17 50 17 31 0 32 -2 32 -40 0 -50 -12 -51 -29 -4 -9 24 -18 34 -29 32 -27
-5 -42 -48 -42 -120 0 -61 2 -67 23 -71 12 -2 -5 -4 -38 -4 -33 -1 -52 1 -42
4 15 4 17 17 17 98 0 81 -2 94 -17 98 -10 3 -1 5 20 6 28 1 37 -3 37 -16z
m200 -82 c0 -70 4 -101 13 -104 6 -3 -10 -6 -38 -6 -38 0 -46 2 -33 10 24 13
22 180 -2 191 -9 4 0 7 23 7 l37 1 0 -99z"/>
<path d="M1878 1879 c-15 -9 -18 -26 -18 -117 0 -71 4 -112 12 -120 7 -7 39
-12 73 -12 34 0 66 5 73 12 8 8 12 49 12 120 0 96 -2 108 -19 118 -25 13 -111
13 -133 -1z"/>
<path d="M1550 1425 l0 -65 46 0 c37 0 51 5 75 30 23 23 29 35 24 52 -11 36
-34 48 -92 48 l-53 0 0 -65z"/>
<path d="M1850 1308 c-49 -14 -61 -27 -58 -62 3 -26 8 -31 34 -34 37 -4 63 22
71 72 6 39 5 39 -47 24z"/>
<path d="M90 751 c0 -17 13 -18 275 -17 255 1 275 2 275 19 0 16 -20 17 -275
17 -261 0 -275 -1 -275 -19z"/>
<path d="M990 751 c0 -23 -16 -36 -25 -21 -9 15 -36 12 -56 -6 -19 -17 -29
-15 -66 12 -20 14 -23 14 -23 2 0 -9 17 -27 39 -42 54 -37 62 -60 41 -119 -9
-26 -21 -52 -27 -58 -6 -6 -35 -2 -85 14 l-76 24 -4 -29 c-4 -24 0 -33 22 -47
43 -26 110 -87 110 -99 0 -16 -29 -15 -64 3 -15 8 -33 15 -39 15 -19 0 12 -24
45 -36 49 -16 54 -33 33 -109 -18 -68 -55 -125 -81 -125 -8 0 -14 -4 -14 -9 0
-17 29 -19 87 -6 68 17 125 19 138 6 6 -6 70 -11 144 -12 133 -1 135 -1 144
22 12 31 0 161 -16 171 -6 4 -24 8 -39 8 -18 0 -28 5 -28 15 0 10 10 15 28 15
50 0 72 11 72 34 0 34 -9 37 -50 16 -21 -11 -40 -17 -43 -14 -3 3 14 43 37 89
48 92 76 190 76 260 l0 45 -69 0 c-75 0 -81 -5 -81 -71 0 -15 -6 -32 -13 -38
-11 -9 -17 1 -30 49 -17 59 -18 60 -52 60 -28 0 -35 -4 -35 -19z m-50 -40 c0
-6 -4 -13 -10 -16 -5 -3 -10 1 -10 9 0 9 5 16 10 16 6 0 10 -4 10 -9z m53 -32
c-22 -23 -46 -18 -36 6 3 8 17 15 31 15 l26 0 -21 -21z m49 -40 c-5 -30 -13
-45 -25 -47 -24 -5 -22 33 4 70 12 16 23 27 25 25 2 -2 0 -23 -4 -48z m169 31
c29 -16 24 -30 -28 -76 -46 -40 -47 -42 -30 -61 21 -24 22 -39 1 -47 -30 -12
-84 36 -84 75 0 20 13 39 53 73 57 50 59 51 88 36z m-167 -146 c13 -34 7 -44
-29 -44 -38 0 -44 13 -18 42 20 22 39 23 47 2z m-251 -16 c27 -10 37 -28 16
-28 -19 0 -79 32 -79 42 0 6 8 7 18 3 9 -4 29 -12 45 -17z m66 -67 c9 -6 10
-10 2 -16 -15 -8 -41 1 -41 15 0 12 20 13 39 1z m74 -16 c4 -8 2 -17 -4 -21
-15 -9 -39 3 -39 21 0 19 36 20 43 0z m107 -33 c0 -5 -6 -17 -14 -27 -14 -19
-15 -19 -51 -2 -20 9 -33 22 -30 27 7 12 95 14 95 2z m-145 -61 c-6 -27 -4
-29 31 -35 22 -5 41 -3 47 3 8 8 3 11 -15 11 -36 0 -44 17 -11 23 29 5 73 -17
73 -37 0 -26 -143 -132 -161 -120 -17 10 -8 97 16 172 9 26 27 12 20 -17z
m229 -43 c10 -16 12 -40 9 -81 l-5 -57 -69 0 c-38 0 -69 4 -69 9 0 5 16 23 36
41 32 27 34 33 20 43 -18 14 -12 26 24 50 32 22 37 21 54 -5z"/>
<path d="M1085 240 c-3 -5 3 -10 14 -10 12 0 21 5 21 10 0 6 -6 10 -14 10 -8
0 -18 -4 -21 -10z"/>
<path d="M1356 723 c-20 -59 -20 -63 3 -63 11 0 23 -5 27 -12 5 -8 -2 -9 -24
-5 l-32 7 0 -95 c0 -78 3 -95 15 -95 20 0 19 -10 -2 -25 -16 -12 -14 -15 17
-28 l35 -15 -35 -2 -35 -2 38 -10 c47 -13 49 -31 2 -24 l-35 6 0 -74 c0 -61 3
-75 18 -81 16 -6 16 -7 0 -16 -12 -7 -18 -22 -18 -44 l0 -35 109 0 c60 0 116
-3 125 -6 13 -5 16 2 16 41 0 28 -4 44 -10 40 -24 -15 -30 8 -10 39 13 22 20
51 20 84 l0 51 -31 -4 c-21 -3 -29 0 -26 8 2 7 16 13 32 15 22 3 25 6 14 14
-11 7 -11 11 -1 15 6 2 12 11 12 18 0 7 -6 16 -12 19 -10 5 -10 7 0 12 8 4 12
34 12 98 l0 93 -26 -5 c-19 -3 -25 -1 -20 7 4 6 16 11 27 11 12 0 19 7 19 19
0 15 -11 19 -72 25 -40 4 -77 11 -82 16 -12 12 11 12 97 1 l57 -7 0 28 0 28
-104 0 -104 0 -16 -47z m93 -52 c9 -6 10 -11 2 -15 -13 -8 -31 1 -31 15 0 11
11 11 29 0z m-56 -58 c-7 -2 -19 -2 -25 0 -7 3 -2 5 12 5 14 0 19 -2 13 -5z
m87 -19 c0 -14 -3 -14 -15 -4 -8 7 -15 14 -15 16 0 2 7 4 15 4 8 0 15 -7 15
-16z m-75 -15 c9 -13 5 -16 -20 -21 -12 -2 -21 3 -23 15 -4 19 32 25 43 6z
m165 -3 c0 -18 -30 -30 -43 -17 -5 5 -6 14 -3 20 10 16 46 13 46 -3z m-156
-77 c-7 -12 -51 -12 -58 0 -4 5 -1 11 6 13 19 7 58 -3 52 -13z m84 -56 c2 -9
-8 -13 -32 -13 -34 0 -44 8 -29 24 11 11 56 2 61 -11z m-8 -118 c0 -8 -9 -15
-20 -15 -20 0 -26 11 -13 23 12 13 33 7 33 -8z m-110 -35 c0 -5 -9 -10 -20
-10 -11 0 -20 5 -20 10 0 6 9 10 20 10 11 0 20 -4 20 -10z m110 -44 c0 -20
-65 -58 -92 -54 -28 4 -29 22 -2 27 10 2 30 12 43 22 28 23 51 25 51 5z m9
-87 c46 -16 38 -28 -19 -26 -49 2 -69 21 -32 30 9 3 17 5 18 6 1 0 15 -4 33
-10z"/>
<path d="M1654 742 c3 -15 8 -45 12 -67 4 -22 11 -46 17 -52 6 -9 6 -18 -3
-28 -18 -22 -3 -70 25 -83 29 -14 30 -19 9 -73 -17 -41 -16 -116 2 -274 l7
-56 91 1 c50 1 107 -1 127 -5 59 -11 63 3 39 149 -11 70 -20 139 -20 155 0 30
27 61 54 61 14 0 16 -11 15 -78 -1 -50 6 -105 20 -157 11 -44 22 -91 23 -105
3 -24 5 -25 63 -21 33 2 66 8 73 13 8 8 12 51 12 155 l0 145 28 -6 27 -7 -3
128 c-1 71 -5 143 -8 161 -6 41 -36 72 -69 72 l-24 0 21 -36 c20 -35 21 -37 4
-50 -15 -10 -25 -10 -58 2 -45 16 -62 11 -55 -17 7 -26 -29 -56 -51 -43 -23
15 -28 53 -8 59 9 3 23 7 31 10 11 3 7 13 -17 40 -31 34 -33 35 -110 35 -44 0
-107 -7 -142 -16 -57 -14 -66 -14 -100 0 l-38 16 6 -28z m132 -43 c15 -17 16
-21 0 -54 -9 -19 -20 -35 -25 -35 -16 0 -61 57 -61 78 0 41 52 49 86 11z m128
-18 c21 -24 17 -54 -7 -59 -24 -5 -47 16 -47 43 0 40 26 47 54 16z m76 -106
c10 -13 10 -19 -5 -35 -28 -31 -55 -26 -55 9 0 40 36 55 60 26z m-151 -24 c8
-5 12 -18 8 -30 -3 -13 0 -21 8 -21 9 0 14 -29 19 -102 4 -57 9 -134 12 -173
l5 -70 -20 25 c-11 14 -21 33 -21 43 0 10 -10 31 -22 48 -17 23 -22 44 -23 92
0 34 3 77 7 95 6 25 4 32 -7 32 -10 0 -15 10 -15 28 0 41 17 53 49 33z m261
-26 c15 -18 6 -45 -14 -45 -8 0 -22 7 -31 16 -12 12 -13 19 -4 30 15 18 33 18
49 -1z m120 -10 c18 -21 5 -45 -25 -45 -27 0 -41 20 -31 45 7 19 40 19 56 0z
m-53 -87 c4 -7 8 -55 9 -105 1 -91 0 -93 -22 -93 -18 0 -28 -9 -40 -37 -15
-36 -16 -37 -30 -19 -19 26 -18 81 2 164 22 88 57 127 81 90z"/>
<path d="M2350 723 c-10 -35 -13 -88 -10 -198 2 -82 4 -209 4 -282 l1 -132
133 -3 c74 -2 136 -1 138 1 2 2 4 152 4 333 l0 328 -57 0 -58 0 -15 -48 c-13
-40 -18 -47 -39 -44 -38 4 -53 20 -40 44 14 27 4 48 -24 48 -18 0 -25 -9 -37
-47z"/>
<path d="M99 678 c0 -13 -2 -35 -3 -50 -1 -22 3 -27 27 -32 39 -8 232 -8 290
0 l46 7 -22 18 c-30 24 -14 36 53 41 l55 3 3 -32 c3 -32 5 -33 48 -33 l44 0 0
50 0 50 -270 0 -270 0 -1 -22z"/>
<path d="M760 661 c-5 -11 -10 -36 -10 -55 0 -34 2 -36 33 -36 38 0 61 20 71
64 8 34 -4 46 -51 46 -22 0 -36 -6 -43 -19z"/>
<path d="M525 570 c-27 -5 -90 -15 -139 -24 -117 -21 -169 -20 -216 4 -72 37
-69 46 -72 -207 -2 -126 -2 -230 -1 -233 0 -3 123 -4 272 -2 l271 3 0 228 c0
268 9 250 -115 231z"/>
</g>
</svg>
